<svg width="108" height="16" viewBox="0 0 108 16" fill="none" xmlns="http://www.w3.org/2000/svg">
<g clip-path="url(#clip0_6753_3117)">
<path d="M9.43486 15.3375C11.9656 15.3673 14.0795 14.1658 15.6102 12.936C13.8925 13.8918 11.7779 14.6499 9.35845 14.6132C7.08464 14.5788 5.08734 13.8506 3.44409 12.936C4.94417 14.1411 6.99086 15.3086 9.43486 15.3375Z" fill="#F20000"/>
<path d="M9.43486 15.3375C11.9656 15.3673 14.0795 14.1658 15.6102 12.936C13.8925 13.8918 11.7779 14.6499 9.35845 14.6132C7.08464 14.5788 5.08734 13.8506 3.44409 12.936C4.94417 14.1411 6.99086 15.3086 9.43486 15.3375Z" fill="#F20000"/>
<path d="M9.43486 15.9993C11.9656 16.0374 14.0795 14.5048 15.6102 12.936C13.8925 14.1552 11.7779 15.1222 9.35845 15.0754C7.08438 15.0312 5.08734 14.1031 3.44409 12.9363C4.94417 14.4733 6.99086 15.9624 9.43486 15.9993Z" fill="#F20000"/>
<path d="M8.6041 4.97942L8.17986 4.55187C8.11206 4.48434 8.0317 4.43095 7.94338 4.39477C7.85506 4.3586 7.76052 4.34034 7.66519 4.34106C7.57059 4.33934 7.47664 4.35716 7.38914 4.39341C7.30163 4.42967 7.22242 4.4836 7.15639 4.55187L4.40676 7.32225L1.6574 4.55196C1.59137 4.48368 1.51216 4.42976 1.42465 4.3935C1.33715 4.35724 1.2432 4.33943 1.1486 4.34114C1.05325 4.34042 0.958697 4.35867 0.870362 4.39484C0.782026 4.43102 0.701648 4.48441 0.633837 4.55196L0.214866 4.97951C0.145746 5.04658 0.0910108 5.12722 0.0540439 5.21645C0.017077 5.30568 -0.00133609 5.4016 -5.75511e-05 5.49828C-0.00230046 5.5942 0.0156994 5.6895 0.0527506 5.77788C0.0898018 5.86626 0.14506 5.94571 0.214866 6.01096L3.89752 9.72183C3.96228 9.79216 4.04113 9.84784 4.12884 9.88517C4.21655 9.9225 4.31113 9.94064 4.40632 9.93839C4.50229 9.93969 4.5975 9.92114 4.68607 9.88389C4.77464 9.84664 4.85469 9.79149 4.92126 9.72183L8.60392 6.01113C8.67171 5.94461 8.72526 5.8648 8.76128 5.77663C8.79729 5.68846 8.815 5.59379 8.81332 5.49846C8.81408 5.40233 8.79599 5.30699 8.76009 5.21791C8.72418 5.12884 8.67117 5.0478 8.6041 4.97942Z" fill="#0553C8"/>
<path d="M18.8641 9.07468L18.29 9.65338C18.1982 9.74479 18.0894 9.81705 17.9699 9.86602C17.8504 9.91498 17.7224 9.93968 17.5934 9.93871C17.4652 9.9411 17.338 9.91701 17.2195 9.86794C17.1009 9.81887 16.9936 9.74585 16.9042 9.65338L13.1831 5.9038L9.46213 9.65285C9.3727 9.74534 9.26541 9.81838 9.14689 9.86746C9.02836 9.91655 8.9011 9.94065 8.77297 9.93827C8.64392 9.93924 8.51594 9.91452 8.39638 9.86555C8.27683 9.81657 8.16804 9.74429 8.07627 9.65285L7.50966 9.07415C7.41618 8.98341 7.34215 8.87434 7.29212 8.75367C7.24209 8.63299 7.21712 8.50327 7.21877 8.37249C7.21568 8.24262 7.24002 8.11356 7.29017 7.99388C7.34032 7.87419 7.41513 7.76661 7.50966 7.67826L12.4941 2.65592C12.5818 2.56066 12.6886 2.48527 12.8074 2.43474C12.9262 2.38421 13.0543 2.35969 13.1832 2.36281C13.313 2.36112 13.4418 2.38626 13.5617 2.43667C13.6815 2.48708 13.7898 2.5617 13.8798 2.65592L18.8642 7.67826C18.956 7.76835 19.0285 7.87642 19.0772 7.99582C19.126 8.11522 19.1499 8.24341 19.1476 8.37249C19.1485 8.50257 19.124 8.63157 19.0753 8.75207C19.0267 8.87256 18.9549 8.9822 18.8641 9.07468Z" fill="#08B29B"/>
<path d="M26.8873 14.6088C26.7961 14.6116 26.7053 14.5955 26.6205 14.5616C26.5357 14.5276 26.4586 14.4765 26.3942 14.4115C26.3296 14.3465 26.2789 14.2689 26.2452 14.1835C26.2115 14.098 26.1956 14.0065 26.1983 13.9146V7.85712C26.1943 7.76401 26.2096 7.67109 26.2433 7.58432C26.2771 7.49755 26.3285 7.41885 26.3942 7.35328C26.4596 7.29005 26.537 7.24062 26.6217 7.2079C26.7063 7.17518 26.7966 7.15981 26.8873 7.16271C26.9791 7.15852 27.0708 7.17326 27.1568 7.20603C27.2428 7.2388 27.3212 7.28891 27.3873 7.35328C27.4512 7.41988 27.5009 7.49891 27.5334 7.58555C27.566 7.67218 27.5806 7.76459 27.5764 7.85712V13.9146C27.5793 14.0059 27.5641 14.0969 27.5316 14.1823C27.4991 14.2676 27.4501 14.3455 27.3873 14.4115C27.3222 14.4777 27.2441 14.5295 27.158 14.5635C27.0719 14.5974 26.9797 14.6129 26.8873 14.6088ZM26.8873 5.95139C26.7701 5.95276 26.654 5.92994 26.5459 5.88433C26.4379 5.83872 26.3403 5.7713 26.2591 5.68621C26.1746 5.60441 26.1077 5.50604 26.0625 5.39718C26.0172 5.28831 25.9945 5.17126 25.9959 5.05324C25.9945 4.93521 26.0172 4.81816 26.0625 4.7093C26.1077 4.60043 26.1746 4.50207 26.2591 4.42026C26.3403 4.33518 26.4379 4.26775 26.5459 4.22214C26.654 4.17654 26.7701 4.15372 26.8873 4.15509C27.0044 4.15372 27.1206 4.17654 27.2286 4.22214C27.3367 4.26775 27.4343 4.33518 27.5155 4.42026C27.5999 4.50207 27.6668 4.60043 27.7121 4.7093C27.7573 4.81816 27.78 4.93521 27.7786 5.05324C27.78 5.17126 27.7573 5.28831 27.7121 5.39718C27.6668 5.50604 27.5999 5.60441 27.5155 5.68621C27.4343 5.7713 27.3367 5.83872 27.2286 5.88433C27.1206 5.92994 27.0044 5.95276 26.8873 5.95139ZM36.0872 14.6225C35.996 14.6252 35.9052 14.6091 35.8204 14.5752C35.7356 14.5412 35.6586 14.4901 35.5941 14.4251C35.5296 14.3601 35.4789 14.2825 35.4452 14.1971C35.4115 14.1116 35.3955 14.0201 35.3983 13.9282V10.5796C35.3983 10.0623 35.3037 9.64034 35.1146 9.31364C34.9384 8.99927 34.6725 8.74553 34.3514 8.58538C34.0076 8.42121 33.6306 8.33967 33.2503 8.34716C32.8948 8.34202 32.5432 8.4213 32.2239 8.57857C31.9329 8.71989 31.6819 8.93292 31.4944 9.19793C31.3134 9.45909 31.2189 9.7711 31.2242 10.0895H30.3733C30.3646 9.55011 30.5075 9.01921 30.7856 8.55815C31.0611 8.10798 31.4501 7.73931 31.9128 7.48958C32.4066 7.22229 32.96 7.08641 33.5204 7.09483C34.1013 7.08493 34.6752 7.22306 35.1889 7.49639C35.6819 7.76624 36.0857 8.17555 36.3507 8.67386C36.6344 9.19113 36.7762 9.82637 36.7762 10.5796V13.9282C36.779 14.0201 36.763 14.1116 36.7293 14.1971C36.6956 14.2825 36.6449 14.3601 36.5803 14.4251C36.5159 14.4901 36.4389 14.5412 36.3541 14.5752C36.2693 14.6091 36.1785 14.6252 36.0872 14.6225ZM30.5348 14.6225C30.4436 14.6252 30.3528 14.6091 30.268 14.5752C30.1832 14.5412 30.1062 14.4901 30.0417 14.4251C29.9772 14.3601 29.9265 14.2825 29.8928 14.1971C29.8591 14.1116 29.8431 14.0201 29.8459 13.9282V7.85712C29.8418 7.76401 29.8572 7.67109 29.8909 7.58432C29.9246 7.49755 29.976 7.41885 30.0417 7.35328C30.1072 7.29005 30.1845 7.24062 30.2692 7.2079C30.3539 7.17518 30.4442 7.15981 30.5348 7.16271C30.6267 7.15852 30.7184 7.17326 30.8044 7.20603C30.8903 7.2388 30.9688 7.28891 31.0349 7.35328C31.0988 7.41988 31.1485 7.49891 31.181 7.58555C31.2135 7.67218 31.2282 7.76459 31.224 7.85712V13.9282C31.2269 14.0196 31.2116 14.1106 31.1792 14.1959C31.1467 14.2812 31.0976 14.3591 31.0349 14.4251C30.9698 14.4913 30.8917 14.5431 30.8056 14.5771C30.7195 14.6111 30.6272 14.6265 30.5348 14.6225ZM40.8561 14.5952C40.5769 14.5952 40.3608 14.4455 40.2076 14.146L37.3436 8.0613C37.3083 7.99111 37.2882 7.91413 37.2847 7.8355C37.2812 7.75686 37.2944 7.67838 37.3234 7.60529C37.3886 7.44857 37.5123 7.32393 37.6679 7.25817C37.7382 7.21827 37.8161 7.19398 37.8965 7.18694C37.9769 7.17989 38.0579 7.19026 38.1339 7.21734C38.2896 7.27007 38.4182 7.38259 38.4919 7.53042L41.1668 13.3429H40.5184L43.1662 7.53042C43.2042 7.45585 43.2567 7.38972 43.3205 7.33595C43.3843 7.28217 43.4582 7.24184 43.5377 7.21734C43.7053 7.16293 43.8875 7.17761 44.0443 7.25817C44.1193 7.28848 44.187 7.33449 44.243 7.39316C44.2989 7.45183 44.3419 7.52182 44.3689 7.59848C44.3958 7.67345 44.4072 7.75313 44.4025 7.83269C44.3979 7.91224 44.3773 7.99002 44.3419 8.0613L41.4775 14.146C41.3424 14.4455 41.1353 14.5952 40.8561 14.5952ZM48.6644 14.6633C47.9701 14.6764 47.2841 14.51 46.6718 14.1801C46.1037 13.8705 45.6315 13.4088 45.3073 12.846C44.9715 12.2515 44.8011 11.5766 44.8142 10.8926C44.8 10.2074 44.9605 9.53001 45.2805 8.92525C45.5803 8.36929 46.0268 7.90764 46.5706 7.59123C47.1466 7.26211 47.7999 7.0952 48.462 7.108C49.1644 7.108 49.7679 7.26454 50.2722 7.57762C50.7733 7.88702 51.1745 8.33623 51.4273 8.8708C51.7027 9.46468 51.839 10.1144 51.8258 10.7697C51.8281 10.8496 51.8136 10.929 51.7834 11.0029C51.7531 11.0768 51.7078 11.1434 51.6504 11.1985C51.591 11.2552 51.521 11.2995 51.4444 11.3287C51.3679 11.3579 51.2864 11.3715 51.2046 11.3687H45.7601V10.2797H51.1639L50.61 10.6608C50.6083 10.2398 50.5161 9.82417 50.3398 9.44251C50.1793 9.09645 49.9268 8.80196 49.6103 8.59174C49.2667 8.37503 48.8671 8.26605 48.462 8.27866C47.9999 8.2651 47.5434 8.38305 47.1448 8.61897C46.7837 8.8417 46.4949 9.16576 46.3139 9.55141C46.1195 9.97082 46.0224 10.4294 46.0302 10.8922C46.0221 11.3594 46.1387 11.8201 46.368 12.2262C46.5904 12.6137 46.9124 12.9335 47.3001 13.1519C47.7174 13.3841 48.188 13.5015 48.6646 13.4922C48.9573 13.4898 49.2475 13.4368 49.5225 13.3356C49.7754 13.2518 50.0145 13.1302 50.2317 12.9749C50.3584 12.8781 50.5118 12.8234 50.6708 12.8184C50.8213 12.8113 50.9688 12.8624 51.0831 12.9613C51.1519 13.0155 51.2089 13.0833 51.2507 13.1606C51.2925 13.2378 51.3182 13.3229 51.3262 13.4105C51.3293 13.4937 51.3111 13.5762 51.2732 13.6501C51.2353 13.7241 51.1791 13.7869 51.1101 13.8325C50.7668 14.0974 50.3804 14.3003 49.9683 14.4321C49.549 14.5801 49.1086 14.6582 48.6644 14.6633ZM55.9731 14.6633C55.3774 14.6692 54.7854 14.5701 54.2236 14.3706C53.6877 14.1755 53.2712 13.9282 52.974 13.6288C52.9098 13.5646 52.8612 13.4864 52.8319 13.4002C52.8027 13.314 52.7935 13.2222 52.8051 13.1319C52.8152 13.0417 52.8438 12.9545 52.8891 12.876C52.9344 12.7975 52.9954 12.7294 53.0683 12.6759C53.1398 12.6099 53.2242 12.5595 53.316 12.5278C53.4078 12.4962 53.5052 12.4841 53.6019 12.4921C53.7763 12.5141 53.9369 12.5987 54.0545 12.7303C54.2076 12.9028 54.453 13.0638 54.7907 13.2136C55.1472 13.3671 55.5316 13.4437 55.9192 13.4382C56.4416 13.4382 56.8401 13.352 57.1148 13.1795C57.3895 13.0071 57.5313 12.7848 57.5403 12.5125C57.5493 12.2403 57.421 12.0043 57.1553 11.8047C56.8896 11.6051 56.4055 11.4417 55.7031 11.3147C54.7934 11.1332 54.1337 10.8609 53.7239 10.4979C53.5294 10.3357 53.3732 10.1317 53.2669 9.90093C53.1606 9.67014 53.1067 9.41834 53.1092 9.1639C53.0944 8.74254 53.2393 8.33129 53.5145 8.01366C53.7978 7.70096 54.156 7.46663 54.5547 7.33304C54.9802 7.18294 55.4279 7.10699 55.8787 7.10844C56.419 7.09843 56.9561 7.19556 57.4593 7.3943C57.8844 7.56 58.2609 7.83164 58.5536 8.18381C58.6116 8.24412 58.657 8.31556 58.6872 8.39389C58.7173 8.47222 58.7315 8.55585 58.729 8.63983C58.7236 8.71997 58.7001 8.79781 58.6603 8.8674C58.6205 8.93699 58.5655 8.99651 58.4993 9.04139C58.4246 9.09148 58.3406 9.12575 58.2524 9.14213C58.1641 9.15851 58.0735 9.15665 57.986 9.13668C57.7991 9.106 57.6253 9.02082 57.486 8.89166C57.2811 8.6863 57.0312 8.53241 56.7564 8.44245C56.4625 8.35619 56.1574 8.31489 55.8513 8.31994C55.5047 8.30949 55.1604 8.37934 54.8448 8.52412C54.57 8.66025 54.4325 8.85989 54.4325 9.12307C54.4307 9.28011 54.4754 9.43414 54.5609 9.56547C54.6464 9.69705 54.8153 9.81491 55.0675 9.91904C55.4271 10.0539 55.7978 10.1563 56.1753 10.2253C56.8507 10.3614 57.3844 10.5339 57.7761 10.7426C58.1679 10.9513 58.4496 11.1941 58.6211 11.4709C58.7955 11.7597 58.8846 12.0926 58.8778 12.4306C58.8825 12.8321 58.7671 13.2258 58.5468 13.5604C58.3039 13.9149 57.9668 14.1932 57.5741 14.3636C57.1463 14.5634 56.6127 14.6633 55.9732 14.6633H55.9731ZM63.0117 14.6088C62.5815 14.6146 62.159 14.494 61.7958 14.2617C61.4338 14.0283 61.1401 13.7018 60.9449 13.3159C60.7336 12.8991 60.6269 12.4364 60.6342 11.9683V5.47522C60.6309 5.38486 60.646 5.29477 60.6785 5.2105C60.711 5.12622 60.7603 5.04954 60.8233 4.98518C60.8872 4.92167 60.9633 4.872 61.0469 4.83923C61.1306 4.80646 61.22 4.79127 61.3097 4.7946C61.3994 4.79127 61.4888 4.80646 61.5724 4.83923C61.656 4.872 61.7321 4.92167 61.796 4.98518C61.859 5.04954 61.9083 5.12622 61.9409 5.2105C61.9734 5.29477 61.9885 5.38486 61.9851 5.47522V11.9683C61.9742 12.2982 62.0795 12.6213 62.2824 12.8803C62.3671 12.9946 62.4772 13.0873 62.6038 13.1511C62.7304 13.2149 62.8701 13.2479 63.0117 13.2476H63.471C63.5494 13.2468 63.6271 13.2634 63.6983 13.2964C63.7696 13.3293 63.8328 13.3778 63.8833 13.4382C63.999 13.5742 64.0593 13.7493 64.0519 13.9282C64.0543 14.0216 64.0354 14.1143 63.9968 14.1992C63.9581 14.2842 63.9008 14.3591 63.829 14.4183C63.667 14.55 63.4629 14.6177 63.2549 14.6088H63.0117ZM60.0126 8.6058C59.8443 8.61335 59.6796 8.55479 59.5533 8.44245C59.4965 8.39115 59.4515 8.3281 59.4212 8.25761C59.3909 8.18712 59.3761 8.11087 59.3778 8.03408C59.3743 7.95303 59.3881 7.87217 59.4184 7.79699C59.4487 7.72182 59.4947 7.65411 59.5533 7.59848C59.6796 7.48614 59.8443 7.42758 60.0126 7.43513H63.1333C63.3016 7.42758 63.4663 7.48614 63.5926 7.59848C63.6512 7.65411 63.6972 7.72182 63.7275 7.79699C63.7578 7.87217 63.7716 7.95303 63.7681 8.03408C63.7698 8.11087 63.755 8.18712 63.7247 8.25761C63.6944 8.3281 63.6493 8.39115 63.5926 8.44245C63.4663 8.55479 63.3016 8.61335 63.1333 8.6058H60.0126Z" fill="#0553C8"/>
<path d="M26.8649 6.18757C27.4463 6.18757 27.9176 5.71268 27.9176 5.12687C27.9176 4.54106 27.4463 4.06616 26.8649 4.06616C26.2836 4.06616 25.8123 4.54106 25.8123 5.12687C25.8123 5.71268 26.2836 6.18757 26.8649 6.18757Z" fill="#F20000"/>
<path d="M69.9798 14.5662C69.8556 14.5679 69.7324 14.544 69.6177 14.4959C69.503 14.4477 69.3994 14.3765 69.3131 14.2864C69.2225 14.1966 69.1511 14.089 69.1034 13.9703C69.0556 13.8516 69.0325 13.7243 69.0355 13.5963V9.2507L64.0937 1.51066C63.9333 1.24955 63.8716 1.00397 63.9086 0.773917C63.9408 0.55224 64.0569 0.351724 64.2326 0.214395C64.4083 0.0725249 64.6275 -0.00329177 64.8527 -4.29209e-05C65.03 -0.00962649 65.2056 0.0394804 65.3527 0.139793C65.4925 0.25148 65.6116 0.387223 65.7044 0.540739L70.4055 8.05706H69.6651L74.4407 0.466224C74.5304 0.325914 74.6507 0.208028 74.7924 0.121496C74.9451 0.0363663 75.1179 -0.00550988 75.2924 0.000310453C75.396 -0.00230959 75.499 0.0170926 75.5947 0.0572535C75.6903 0.0974144 75.7766 0.157434 75.8477 0.233401C75.9967 0.39088 76.0881 0.594789 76.1068 0.811572C76.127 1.05923 76.0616 1.30631 75.9217 1.51093L70.9423 9.2507V13.5963C70.9453 13.7243 70.9221 13.8516 70.8744 13.9703C70.8266 14.089 70.7553 14.1966 70.6647 14.2864C70.5755 14.3777 70.4688 14.4496 70.351 14.4977C70.2332 14.5458 70.1069 14.5691 69.9798 14.5662ZM78.5869 14.5662C78.4619 14.5699 78.3375 14.5478 78.2214 14.5013C78.1052 14.4548 77.9997 14.3848 77.9114 14.2957C77.8229 14.2067 77.7535 14.1004 77.7073 13.9833C77.6612 13.8663 77.6393 13.7409 77.643 13.6151V5.31505C77.6375 5.18753 77.6586 5.06027 77.7048 4.94143C77.751 4.82258 77.8214 4.71479 77.9114 4.62498C78.0011 4.53836 78.107 4.47065 78.223 4.42581C78.339 4.38097 78.4627 4.35991 78.5869 4.36387C78.7126 4.35818 78.8382 4.37841 78.956 4.4233C79.0738 4.4682 79.1812 4.53682 79.2717 4.62498C79.3592 4.7162 79.4273 4.82445 79.4719 4.9431C79.5164 5.06176 79.5365 5.18832 79.5309 5.31505V13.6151C79.5348 13.7402 79.5139 13.8648 79.4694 13.9817C79.4249 14.0986 79.3577 14.2053 79.2717 14.2957C79.1826 14.3864 79.0756 14.4573 78.9577 14.5039C78.8397 14.5505 78.7134 14.5717 78.5869 14.5662ZM78.5869 2.70396C78.4263 2.70576 78.2672 2.67442 78.1191 2.61186C77.9711 2.5493 77.8373 2.45686 77.7261 2.34022C77.6104 2.22816 77.5186 2.09341 77.4565 1.94426C77.3945 1.79511 77.3633 1.63473 77.3651 1.47301C77.3633 1.31127 77.3944 1.15087 77.4565 1.00171C77.5186 0.852545 77.6104 0.717775 77.7261 0.605707C77.8373 0.489087 77.9711 0.396658 78.1191 0.334116C78.2672 0.271575 78.4263 0.240247 78.5869 0.242062C78.7474 0.240259 78.9065 0.271593 79.0545 0.334134C79.2026 0.396675 79.3363 0.489098 79.4475 0.605707C79.5633 0.717775 79.655 0.852545 79.7171 1.00171C79.7792 1.15087 79.8103 1.31127 79.8085 1.47301C79.8103 1.63473 79.7792 1.79511 79.7171 1.94426C79.655 2.09341 79.5633 2.22816 79.4475 2.34022C79.3363 2.45685 79.2026 2.54929 79.0545 2.61184C78.9065 2.6744 78.7474 2.70575 78.5869 2.70396ZM87.3975 14.6408C86.3733 14.6408 85.4633 14.42 84.6674 13.9786C83.8891 13.5544 83.2421 12.9219 82.7979 12.1508C82.3476 11.3738 82.1224 10.4816 82.1224 9.47451C82.1224 8.45506 82.3352 7.5567 82.7609 6.77944C83.1718 6.01771 83.7836 5.38518 84.5287 4.95167C85.2814 4.51024 86.1452 4.28953 87.12 4.28953C88.0825 4.28953 88.9093 4.50403 89.6003 4.93302C90.2869 5.35694 90.8366 5.97242 91.1829 6.70484C91.5469 7.45711 91.7289 8.32444 91.7289 9.30683C91.7319 9.41628 91.712 9.52514 91.6706 9.62635C91.6291 9.72755 91.567 9.81884 91.4883 9.89429C91.4069 9.97203 91.311 10.0327 91.2061 10.0727C91.1012 10.1127 90.9895 10.1314 90.8774 10.1275H83.4179V8.63505H90.8218L90.0629 9.15727C90.0607 8.58043 89.9344 8.01093 89.6927 7.48799C89.4729 7.01397 89.1271 6.61057 88.6936 6.32254C88.2617 6.03657 87.7373 5.89358 87.1203 5.89358C86.4169 5.89358 85.8154 6.049 85.3156 6.35985C84.8209 6.66502 84.4253 7.109 84.1772 7.63737C83.9106 8.21207 83.7775 8.84047 83.7881 9.47478C83.7769 10.1148 83.9367 10.7461 84.2508 11.3025C84.5555 11.8334 84.9968 12.2716 85.528 12.5708C86.0997 12.889 86.7445 13.0497 87.3975 13.037C87.7986 13.0336 88.1962 12.9611 88.573 12.8224C88.9196 12.7075 89.247 12.5408 89.5446 12.3281C89.7181 12.1954 89.9284 12.1204 90.1462 12.1135C90.3522 12.1039 90.5542 12.1739 90.7107 12.3093C90.805 12.3836 90.8832 12.4765 90.9405 12.5823C90.9978 12.6882 91.0331 12.8047 91.044 12.9248C91.0564 13.1487 90.9576 13.3415 90.7479 13.503C90.2776 13.8656 89.7484 14.1433 89.1838 14.3236C88.6095 14.5265 88.0061 14.6336 87.3975 14.6408ZM96.1341 14.5662C95.618 14.5745 95.1125 14.4178 94.6904 14.1185C94.2605 13.8074 93.9216 13.3854 93.7093 12.8969C93.4657 12.3358 93.3457 11.7281 93.3577 11.1158V0.932492C93.3531 0.808631 93.3737 0.685139 93.4183 0.569613C93.4629 0.454086 93.5304 0.348965 93.6168 0.260713C93.7044 0.173683 93.8087 0.105623 93.9234 0.0607198C94.038 0.0158164 94.1606 -0.00498156 94.2835 -0.000396294C94.4064 -0.00498156 94.529 0.0158164 94.6436 0.0607198C94.7583 0.105623 94.8626 0.173683 94.9502 0.260713C95.0366 0.348965 95.1041 0.454086 95.1487 0.569613C95.1932 0.685139 95.2139 0.808631 95.2093 0.932492V11.1158C95.2093 11.5758 95.2957 11.9551 95.4685 12.2535C95.6412 12.5519 95.8635 12.7011 96.1352 12.7011H96.5979C96.7111 12.6973 96.8237 12.7187 96.9277 12.7639C97.0316 12.809 97.1245 12.8767 97.1994 12.9622C97.3582 13.1485 97.4409 13.3886 97.4309 13.634C97.4321 13.7665 97.4006 13.8973 97.3392 14.0146C97.2778 14.1319 97.1885 14.2319 97.0792 14.3057C96.8125 14.4894 96.4938 14.5808 96.1711 14.5662H96.1341ZM102.909 14.6408C101.997 14.6541 101.098 14.419 100.308 13.9601C99.5455 13.5152 98.9133 12.875 98.4756 12.1044C98.0193 11.2984 97.786 10.3838 97.8001 9.45604C97.7849 8.53799 97.9981 7.63071 98.4202 6.81701C98.8134 6.0619 99.3976 5.42491 100.114 4.97059C100.84 4.51369 101.682 4.27739 102.539 4.28997C103.237 4.28322 103.928 4.4396 104.556 4.74687C105.159 5.03989 105.69 5.46328 106.111 5.98683V0.951143C106.105 0.823624 106.126 0.696357 106.173 0.577515C106.219 0.458673 106.289 0.350883 106.379 0.261066C106.469 0.174447 106.575 0.106736 106.691 0.0619C106.807 0.0170638 106.931 -0.00399523 107.055 -4.29209e-05C107.18 -0.00572816 107.306 0.0144945 107.424 0.0593899C107.542 0.104285 107.649 0.172909 107.74 0.261066C107.827 0.352293 107.895 0.460542 107.94 0.579194C107.984 0.697846 108.004 0.824409 107.999 0.951143V9.45586C108.013 10.3837 107.779 11.2983 107.323 12.1043C106.887 12.873 106.259 13.5129 105.5 13.96C104.714 14.4196 103.818 14.6549 102.909 14.6408ZM102.909 12.9622C103.502 12.9721 104.085 12.8138 104.593 12.5052C105.088 12.1996 105.491 11.7644 105.759 11.2462C106.047 10.6946 106.193 10.079 106.185 9.45577C106.196 8.83218 106.05 8.21593 105.759 7.66531C105.486 7.15506 105.084 6.72708 104.593 6.42526C104.085 6.1167 103.502 5.95833 102.909 5.96827C102.319 5.96072 101.739 6.11897 101.233 6.42526C100.737 6.72641 100.328 7.15427 100.049 7.66557C99.7524 8.21431 99.6025 8.83132 99.6141 9.45604C99.6056 10.0804 99.7553 10.6967 100.049 11.2465C100.324 11.7657 100.733 12.2006 101.233 12.5055C101.739 12.8116 102.319 12.9698 102.909 12.9622Z" fill="#08B29B"/>
</g>
<defs>
<clipPath id="clip0_6753_3117">
<rect width="108" height="16" fill="white"/>
</clipPath>
</defs>
</svg>
